<?xml version="1.0" standalone="no"?>
<!DOCTYPE svg PUBLIC "-//W3C//DTD SVG 20010904//EN"
 "http://www.w3.org/TR/2001/REC-SVG-20010904/DTD/svg10.dtd">
<svg version="1.0" xmlns="http://www.w3.org/2000/svg"
 width="1200.000000pt" height="1200.000000pt" viewBox="0 0 1200.000000 1200.000000"
 preserveAspectRatio="xMidYMid meet">
<metadata>
Created by potrace 1.14, written by Peter Selinger 2001-2017
</metadata>
<g transform="translate(0.000000,1200.000000) scale(0.100000,-0.100000)"
fill="#000000" stroke="none">
<path d="M4247 11794 c-1 -1 -22 -5 -47 -8 -71 -8 -111 -15 -130 -21 -18 -6
-33 -9 -82 -20 -41 -8 -223 -92 -298 -136 -92 -54 -285 -230 -350 -317 -14
-18 -34 -44 -46 -58 -11 -14 -34 -51 -51 -82 -16 -32 -45 -85 -63 -117 -18
-33 -45 -80 -58 -105 -14 -25 -34 -61 -45 -80 -11 -19 -33 -60 -49 -90 -17
-30 -33 -59 -38 -65 -4 -5 -29 -50 -55 -100 -26 -49 -64 -119 -85 -155 -21
-36 -51 -91 -69 -122 -64 -117 -84 -154 -108 -198 -13 -25 -32 -58 -42 -75
-20 -33 -68 -120 -104 -187 -13 -24 -34 -61 -47 -83 -12 -22 -35 -64 -50 -93
-16 -29 -32 -58 -38 -65 -5 -6 -33 -57 -62 -112 -29 -55 -56 -104 -60 -110 -4
-5 -24 -41 -45 -80 -21 -38 -66 -121 -101 -182 -35 -62 -64 -116 -64 -119 0
-3 -9 -18 -19 -33 -11 -15 -17 -32 -13 -37 4 -6 43 -30 87 -54 44 -24 103 -56
130 -71 28 -16 66 -37 85 -47 41 -22 130 -71 180 -99 19 -11 67 -37 105 -58
106 -57 172 -93 256 -141 42 -24 79 -44 83 -44 3 0 23 -10 44 -23 20 -13 66
-40 102 -59 141 -77 187 -102 232 -127 26 -14 71 -39 100 -55 29 -16 76 -42
103 -57 28 -16 70 -39 95 -52 25 -13 61 -33 80 -44 45 -25 129 -72 200 -111
57 -31 103 -56 230 -127 41 -23 89 -49 105 -57 33 -17 99 -53 160 -88 90 -51
167 -91 170 -88 2 3 118 210 185 333 15 28 79 142 142 255 63 113 131 236 152
273 20 37 46 84 58 105 75 133 160 286 190 342 19 36 57 103 83 150 93 167
124 223 180 325 12 22 31 56 42 75 11 19 35 62 53 95 18 33 42 76 53 95 11 19
32 58 47 85 15 28 44 79 64 113 20 35 36 66 36 68 0 2 11 21 23 42 13 20 43
73 67 117 78 144 92 169 118 215 44 77 42 77 83 8 21 -35 42 -70 46 -78 6 -13
82 -143 120 -205 7 -11 17 -29 23 -40 6 -11 16 -29 23 -40 7 -11 30 -51 52
-88 22 -38 45 -76 50 -85 6 -9 28 -48 50 -85 22 -38 48 -81 57 -95 9 -15 29
-49 43 -77 15 -27 32 -56 38 -64 12 -14 30 -43 46 -76 6 -11 22 -38 36 -60 14
-22 28 -47 32 -55 4 -8 29 -50 55 -93 26 -43 48 -80 48 -83 0 -2 12 -23 27
-47 15 -23 34 -53 41 -67 7 -14 18 -34 25 -45 7 -11 25 -43 42 -70 16 -28 35
-59 42 -70 7 -11 16 -29 22 -40 5 -11 21 -37 35 -58 31 -46 31 -45 4 -57 -13
-5 -41 -21 -63 -35 -22 -13 -53 -31 -70 -40 -16 -8 -37 -19 -45 -24 -8 -6 -44
-26 -80 -47 -36 -20 -79 -45 -97 -55 -18 -10 -62 -35 -99 -55 -37 -20 -112
-63 -166 -95 -55 -33 -101 -59 -103 -59 -2 0 -28 -14 -57 -31 -78 -47 -166
-97 -255 -146 -35 -19 -63 -37 -63 -39 0 -2 30 -2 68 0 37 3 132 8 212 11 80
3 170 8 200 10 30 2 120 7 200 10 80 3 177 8 215 10 39 2 131 7 205 10 74 3
164 8 200 10 36 2 126 7 200 10 74 3 171 7 215 10 44 2 139 7 210 10 72 3 159
8 195 10 36 2 128 7 205 10 77 3 172 8 210 10 39 2 138 7 220 11 83 4 166 8
185 10 19 1 44 3 55 3 14 1 29 17 46 49 53 98 97 178 119 217 12 22 36 65 53
95 16 30 48 89 72 130 54 96 112 203 143 260 13 25 31 59 41 75 17 29 50 88
112 203 18 31 43 77 57 102 14 25 38 70 55 100 16 30 38 69 47 85 10 17 33 57
51 90 18 33 45 83 61 110 15 28 36 66 46 85 10 19 33 62 52 95 68 121 90 161
106 195 9 19 24 46 34 60 9 14 41 70 70 125 29 55 56 105 60 110 4 6 23 39 42
75 20 36 48 88 63 115 16 28 37 65 47 83 10 18 18 35 18 37 0 6 -112 -54 -170
-90 -31 -20 -182 -108 -265 -155 -77 -44 -151 -87 -242 -142 -34 -21 -64 -38
-67 -38 -2 0 -40 -21 -83 -46 -111 -66 -145 -85 -147 -82 0 2 -7 12 -14 23 -7
11 -19 34 -27 50 -9 17 -27 48 -40 70 -14 22 -35 58 -46 80 -12 22 -43 73 -69
115 -25 41 -49 82 -53 90 -7 16 -17 31 -59 97 -16 23 -28 45 -28 50 -1 4 -21
40 -46 78 -24 39 -50 81 -56 95 -7 14 -24 43 -37 65 -37 57 -43 68 -75 127
-15 28 -40 70 -55 93 -14 22 -32 51 -39 65 -7 14 -18 34 -25 45 -7 11 -35 58
-63 105 -56 96 -70 114 -136 181 -62 63 -141 121 -219 160 -98 48 -105 51
-224 75 -11 2 -32 6 -47 10 -15 3 -30 5 -33 5 -2 0 -19 4 -36 9 -36 10 -635
20 -2339 36 -778 7 -988 11 -1016 17 -20 5 -39 8 -134 24 -32 5 -259 11 -263
7z"/>
<path d="M10540 8186 c-19 -13 -62 -38 -95 -56 -57 -32 -243 -140 -275 -160
-8 -5 -37 -21 -65 -36 -27 -14 -57 -32 -65 -38 -8 -7 -26 -17 -40 -24 -14 -7
-32 -16 -40 -21 -59 -36 -172 -102 -205 -120 -22 -12 -61 -34 -86 -49 -25 -15
-85 -49 -134 -77 -48 -27 -108 -62 -134 -77 -25 -15 -66 -39 -91 -53 -76 -43
-123 -71 -160 -93 -19 -12 -48 -28 -65 -37 -16 -9 -39 -21 -50 -28 -19 -11
-245 -143 -338 -196 -23 -13 -55 -32 -72 -43 -16 -10 -40 -22 -52 -27 -12 -6
-41 -23 -65 -38 -24 -15 -54 -33 -68 -40 -14 -7 -32 -17 -40 -23 -13 -9 -100
-58 -241 -139 -25 -14 -56 -33 -69 -41 l-22 -15 22 -40 c12 -22 32 -58 44 -80
13 -22 38 -67 56 -100 18 -33 41 -71 52 -84 10 -13 18 -28 18 -33 0 -5 16 -34
35 -64 19 -30 35 -56 35 -58 0 -2 23 -43 52 -92 51 -89 110 -192 148 -258 11
-20 28 -51 38 -68 20 -35 73 -125 109 -186 33 -57 54 -94 75 -132 41 -76 81
-146 96 -170 9 -14 27 -45 40 -70 14 -25 31 -52 38 -61 8 -8 14 -19 14 -23 0
-5 15 -34 34 -65 19 -31 44 -74 56 -96 13 -22 31 -53 41 -70 11 -16 24 -41 31
-55 7 -14 26 -47 43 -75 17 -27 34 -57 38 -65 4 -8 18 -33 32 -55 13 -22 31
-53 40 -70 8 -16 26 -48 40 -70 13 -22 27 -47 31 -55 4 -8 35 -62 69 -120 34
-58 73 -125 87 -150 53 -95 71 -127 109 -192 22 -36 39 -69 39 -73 0 -6 -1992
5 -1999 11 -4 3 -1 302 4 429 1 39 6 232 10 430 4 198 8 377 10 398 2 20 1 37
-1 37 -2 0 -16 -24 -30 -52 -14 -29 -38 -75 -53 -103 -15 -27 -43 -79 -63
-115 -19 -36 -50 -92 -68 -125 -18 -33 -53 -98 -78 -145 -71 -132 -113 -210
-148 -275 -18 -33 -43 -80 -55 -105 -13 -25 -32 -61 -44 -80 -19 -32 -86 -155
-170 -315 -18 -33 -52 -96 -76 -140 -24 -44 -55 -101 -69 -127 -14 -25 -34
-63 -46 -85 -12 -21 -41 -76 -66 -123 -25 -47 -57 -105 -70 -130 -14 -25 -47
-85 -73 -135 -26 -49 -60 -112 -75 -140 -15 -27 -48 -90 -75 -140 -26 -49 -51
-94 -55 -100 -4 -5 -32 -58 -63 -116 l-56 -106 18 -34 c24 -46 67 -122 101
-177 16 -26 43 -74 61 -107 17 -33 35 -65 40 -71 5 -6 23 -37 40 -70 17 -32
37 -66 43 -74 6 -8 22 -35 35 -60 13 -25 29 -52 36 -60 6 -8 17 -26 23 -40 7
-14 20 -38 30 -55 10 -16 30 -50 44 -75 14 -25 35 -61 47 -80 11 -19 24 -42
28 -50 4 -8 33 -59 65 -113 32 -54 58 -100 58 -102 0 -3 214 -374 269 -465 11
-19 27 -48 36 -65 8 -16 26 -48 40 -70 14 -22 28 -47 32 -55 4 -8 16 -31 28
-50 12 -19 33 -55 47 -80 38 -67 69 -121 89 -155 10 -16 24 -41 32 -55 7 -14
24 -43 37 -65 13 -22 30 -51 37 -65 8 -14 25 -43 38 -65 12 -22 33 -59 45 -83
12 -24 24 -42 25 -40 2 2 6 192 10 423 8 507 13 686 20 694 3 3 191 4 418 1
673 -6 1160 -5 1198 2 20 4 47 12 60 17 13 5 27 9 32 10 4 0 8 1 10 2 1 0 10
2 19 4 41 8 195 92 266 145 104 77 167 146 246 268 36 56 66 105 66 108 0 3
11 20 25 38 14 18 25 38 25 44 0 7 4 12 9 12 5 0 11 8 14 18 4 9 43 73 88 142
44 69 93 145 107 170 15 25 30 50 34 55 22 28 108 167 108 174 0 5 3 11 8 13
8 3 62 84 62 93 0 4 11 21 25 39 14 18 25 36 25 39 0 4 16 29 35 56 19 26 35
51 35 54 0 4 13 26 29 49 30 45 87 136 207 328 26 41 64 100 85 132 22 31 39
59 39 62 0 6 52 86 101 158 11 15 19 29 19 32 0 2 23 39 50 80 28 42 50 78 50
81 0 3 5 11 10 18 22 25 110 167 110 177 0 5 4 10 8 10 5 0 16 15 26 33 24 45
36 65 74 119 17 26 32 49 32 52 0 3 23 39 50 80 28 41 50 79 50 85 0 6 5 11
10 11 6 0 10 5 10 10 0 6 14 29 30 52 17 22 30 45 30 49 0 8 10 21 72 93 15
17 28 37 28 44 0 6 4 12 8 12 5 0 15 12 23 28 7 15 30 52 50 82 47 70 102 178
134 263 14 37 25 69 25 72 0 3 0 6 1 8 0 1 2 9 4 17 2 8 7 26 10 40 3 14 9 39
11 55 3 17 9 46 13 66 9 42 6 329 -4 374 -4 17 -8 39 -10 50 -6 33 -14 67 -30
125 -8 30 -17 62 -19 70 -2 8 -9 29 -16 45 -6 17 -10 30 -9 30 5 0 -94 181
-107 196 -8 8 -14 19 -14 23 0 5 -15 34 -34 65 -33 54 -49 83 -104 181 -14 25
-32 56 -41 70 -9 14 -30 50 -45 80 -16 30 -34 62 -41 70 -6 8 -16 26 -23 40
-6 14 -23 43 -37 65 -14 22 -28 47 -31 55 -6 13 -64 114 -101 175 -6 11 -20
36 -31 55 -10 19 -29 53 -42 75 -13 22 -36 65 -53 95 -16 30 -33 60 -37 65 -4
6 -17 26 -27 45 -17 30 -60 105 -234 408 -11 17 -28 48 -39 67 -11 19 -29 51
-40 70 -11 19 -28 50 -38 68 -10 17 -36 63 -58 101 -21 37 -50 87 -63 110 -39
68 -46 80 -61 104 -18 27 -16 27 -60 -2z"/>
<path d="M8 7748 c4 -3 59 -36 122 -73 63 -37 129 -76 145 -86 17 -10 46 -28
65 -39 19 -11 53 -31 75 -45 22 -14 47 -28 55 -32 8 -4 33 -19 55 -33 73 -46
80 -50 105 -62 14 -7 43 -24 65 -38 22 -15 47 -30 55 -33 8 -4 27 -15 42 -25
47 -30 142 -87 161 -94 9 -4 17 -10 17 -14 0 -7 -62 -113 -92 -156 -10 -15
-18 -30 -18 -32 0 -3 -16 -30 -35 -60 -19 -30 -35 -58 -35 -61 0 -3 -8 -18
-19 -33 -24 -35 -179 -296 -235 -397 -6 -11 -24 -39 -39 -63 -15 -23 -40 -64
-55 -91 -15 -27 -52 -91 -82 -142 -30 -51 -64 -109 -75 -128 -12 -20 -33 -55
-48 -79 -37 -57 -91 -180 -102 -229 -3 -13 -7 -33 -10 -45 -12 -51 -21 -151
-19 -208 2 -67 14 -171 19 -180 2 -4 7 -21 10 -38 10 -56 35 -122 84 -216 43
-82 68 -131 191 -361 21 -38 59 -110 85 -160 69 -131 150 -283 252 -475 20
-36 60 -112 91 -170 30 -58 68 -130 85 -160 53 -101 114 -214 167 -315 29 -55
69 -131 90 -170 21 -38 58 -108 82 -155 25 -47 65 -121 88 -165 51 -94 86
-161 165 -310 32 -60 71 -135 88 -165 16 -30 45 -86 64 -125 20 -38 41 -77 47
-85 7 -8 20 -40 31 -70 34 -100 169 -350 220 -407 5 -6 21 -26 35 -45 60 -80
266 -258 298 -258 6 0 12 -4 14 -9 7 -21 325 -157 348 -149 3 1 14 -4 26 -10
11 -6 32 -13 45 -16 13 -3 35 -8 49 -11 14 -3 39 -8 55 -12 17 -3 621 -7 1343
-7 1160 -1 1312 1 1313 14 1 8 2 664 3 1457 1 954 -2 1444 -9 1446 -5 1 -713
2 -1572 2 -1190 -1 -1563 2 -1563 11 0 6 7 17 15 24 8 6 17 22 21 33 3 12 12
29 19 37 11 14 45 71 85 145 9 17 28 49 43 72 15 24 27 45 27 48 0 4 66 118
90 155 6 8 16 26 22 40 12 23 56 99 86 145 6 11 18 31 24 45 7 14 27 48 45 77
18 29 33 54 33 57 0 3 16 30 35 60 19 30 35 58 35 61 0 3 16 31 35 61 19 30
35 56 35 59 0 4 47 84 90 155 17 28 112 195 137 240 14 24 33 56 42 70 10 14
31 49 46 78 16 28 31 52 34 52 4 0 51 -27 105 -60 54 -33 100 -60 102 -60 2 0
23 -13 47 -30 25 -16 48 -30 52 -30 4 0 20 -9 35 -20 47 -33 293 -180 302
-180 4 0 8 -3 8 -7 0 -5 10 -13 23 -19 18 -9 154 -91 322 -195 17 -10 37 -22
45 -25 8 -4 23 -14 33 -22 9 -8 19 -13 21 -11 5 4 -83 152 -104 176 -5 7 -10
15 -10 19 0 3 -14 27 -31 53 -18 25 -43 66 -57 91 -14 25 -42 71 -64 103 -21
32 -38 63 -38 68 0 5 -4 9 -10 9 -5 0 -10 4 -10 9 0 5 -23 45 -50 88 -28 43
-54 87 -60 98 -5 11 -30 52 -54 90 -25 39 -65 104 -91 145 -55 89 -58 94 -115
184 -24 39 -52 85 -61 101 -9 17 -44 73 -78 125 -33 52 -68 109 -77 127 -9 18
-22 37 -30 44 -8 6 -14 16 -14 21 0 9 -45 83 -91 150 -11 15 -19 30 -19 33 0
3 -29 51 -65 106 -36 55 -65 102 -65 104 0 2 -47 79 -105 172 -58 92 -114 184
-126 203 -12 19 -30 47 -41 62 -10 15 -18 30 -18 34 0 4 -10 21 -23 38 -13 17
-33 49 -46 71 l-22 40 -1434 0 c-789 0 -1431 -3 -1427 -7z"/>
</g>
</svg>
